<svg width="1200" height="680" viewBox="0 0 1200 680" fill="none" xmlns="http://www.w3.org/2000/svg">
  <rect width="1200" height="680" rx="36" fill="url(#bg)"/>
  <circle cx="1040" cy="120" r="160" fill="#1D4ED8" fill-opacity="0.2"/>
  <circle cx="170" cy="540" r="180" fill="#0F766E" fill-opacity="0.18"/>
  <rect x="96" y="88" width="470" height="250" rx="20" fill="white" fill-opacity="0.95"/>
  <rect x="128" y="128" width="220" height="20" rx="10" fill="#0F766E" fill-opacity="0.2"/>
  <rect x="128" y="168" width="380" height="14" rx="7" fill="#94A3B8"/>
  <rect x="128" y="194" width="340" height="14" rx="7" fill="#CBD5E1"/>
  <rect x="128" y="230" width="180" height="38" rx="12" fill="#0F766E"/>
  <rect x="616" y="142" width="488" height="440" rx="24" fill="white" fill-opacity="0.95"/>
  <rect x="660" y="196" width="312" height="20" rx="10" fill="#0369A1" fill-opacity="0.2"/>
  <rect x="660" y="246" width="396" height="12" rx="6" fill="#94A3B8"/>
  <rect x="660" y="272" width="360" height="12" rx="6" fill="#CBD5E1"/>
  <rect x="660" y="326" width="390" height="96" rx="14" fill="#E0F2FE"/>
  <rect x="690" y="356" width="160" height="10" rx="5" fill="#0369A1"/>
  <rect x="690" y="378" width="120" height="10" rx="5" fill="#0F766E" fill-opacity="0.6"/>
  <rect x="660" y="452" width="180" height="82" rx="14" fill="#DCFCE7"/>
  <rect x="858" y="452" width="192" height="82" rx="14" fill="#FEF3C7"/>
  <defs>
    <linearGradient id="bg" x1="0" y1="0" x2="1200" y2="680" gradientUnits="userSpaceOnUse">
      <stop stop-color="#E0F2FE"/>
      <stop offset="1" stop-color="#ECFEFF"/>
    </linearGradient>
  </defs>
</svg>
