<svg width="1200" height="560" viewBox="0 0 1200 560" fill="none" xmlns="http://www.w3.org/2000/svg">
  <rect width="1200" height="560" rx="28" fill="url(#paint0_linear)"/>
  <rect x="80" y="84" width="320" height="160" rx="18" fill="white" fill-opacity="0.94"/>
  <rect x="112" y="122" width="180" height="14" rx="7" fill="#334155" fill-opacity="0.3"/>
  <rect x="112" y="150" width="240" height="12" rx="6" fill="#64748B"/>
  <rect x="112" y="172" width="190" height="12" rx="6" fill="#94A3B8"/>
  <rect x="432" y="84" width="688" height="392" rx="24" fill="white" fill-opacity="0.95"/>
  <rect x="480" y="128" width="220" height="16" rx="8" fill="#0F172A" fill-opacity="0.2"/>
  <rect x="480" y="168" width="592" height="14" rx="7" fill="#CBD5E1"/>
  <rect x="480" y="196" width="560" height="14" rx="7" fill="#E2E8F0"/>
  <rect x="480" y="242" width="592" height="78" rx="12" fill="#DBEAFE"/>
  <rect x="500" y="266" width="180" height="10" rx="5" fill="#1D4ED8"/>
  <rect x="500" y="286" width="120" height="10" rx="5" fill="#0369A1" fill-opacity="0.6"/>
  <rect x="480" y="342" width="186" height="96" rx="12" fill="#DCFCE7"/>
  <rect x="684" y="342" width="186" height="96" rx="12" fill="#FEF3C7"/>
  <rect x="888" y="342" width="184" height="96" rx="12" fill="#FECACA"/>
  <defs>
    <linearGradient id="paint0_linear" x1="0" y1="0" x2="1200" y2="560" gradientUnits="userSpaceOnUse">
      <stop stop-color="#DBEAFE"/>
      <stop offset="1" stop-color="#E0F2FE"/>
    </linearGradient>
  </defs>
</svg>
